<?xml version="1.0" encoding="UTF-8"?>
<!-- Brainzie monochrome (white / reversed) — single colour with fold cut-outs. For dark or photographic backgrounds. -->
<svg xmlns="http://www.w3.org/2000/svg" viewBox="0 0 360 100" width="360" height="100" role="img" aria-label="Brainzie">
  <defs>
    <mask id="brain-w" maskUnits="userSpaceOnUse" x="0" y="0" width="100" height="100">
      <g fill="#fff">
        <circle cx="30" cy="31" r="12"/><circle cx="44" cy="25" r="13"/><circle cx="56" cy="25" r="13"/><circle cx="70" cy="31" r="12"/>
        <circle cx="22" cy="43" r="12"/><circle cx="78" cy="43" r="12"/>
        <circle cx="35" cy="43" r="14"/><circle cx="50" cy="41" r="16"/><circle cx="65" cy="43" r="14"/>
        <circle cx="30" cy="57" r="13"/><circle cx="50" cy="57" r="16"/><circle cx="70" cy="57" r="13"/>
        <circle cx="41" cy="66" r="12"/><circle cx="59" cy="66" r="12"/>
        <path d="M44 64 h12 v12 a6 6 0 0 1 -12 0 z"/>
      </g>
      <g fill="none" stroke="#000" stroke-width="3.1" stroke-linecap="round" stroke-linejoin="round">
        <path d="M50 18 C46 28 54 35 50 43 C46 51 54 58 50 66"/>
        <path d="M31 33 C24 38 30 44 23 49"/><path d="M27 58 C34 60 30 64 37 65"/>
        <path d="M69 33 C76 38 70 44 77 49"/><path d="M73 58 C66 60 70 64 63 65"/>
      </g>
    </mask>
  </defs>
  <rect x="0" y="0" width="100" height="100" fill="#FFFFFF" mask="url(#brain-w)"/>
  <text x="110" y="66" font-family="'Space Grotesk', 'Segoe UI', sans-serif" font-size="52" font-weight="700" letter-spacing="-1.5" fill="#FFFFFF">Brainzie</text>
</svg>
